<svg width="21" height="20" viewBox="0 0 21 20" fill="none" xmlns="http://www.w3.org/2000/svg">
<path d="M14.0133 10.3333C16.3133 10.3333 18.18 8.46667 18.18 6.16667C18.18 3.86667 16.3133 2 14.0133 2C11.7133 2 9.84667 3.86667 9.84667 6.16667C9.84667 8.46667 11.7133 10.3333 14.0133 10.3333ZM18.555 15C18.23 14.6667 17.8217 14.5 17.3467 14.5H11.5133L9.78 13.8917L10.055 13.1083L11.5133 13.6667H13.8467C14.1383 13.6667 14.3717 13.55 14.5633 13.3583C14.755 13.1667 14.8467 12.9333 14.8467 12.675C14.8467 12.225 14.63 11.9167 14.1967 11.7417L8.13833 9.5H6.51333V17L12.3467 18.6667L19.0383 16.1667C19.0467 15.725 18.88 15.3333 18.555 15ZM4.84667 9.5H1.5V18.6667H4.84667V9.5Z" fill="#F8F8F9"/>
</svg>
