<svg width="50" height="50" viewBox="0 0 50 50" fill="none" xmlns="http://www.w3.org/2000/svg">
<rect width="50" height="50" rx="25" fill="white"/>
<rect width="23" height="23" transform="translate(14 14)" fill="white"/>
<path fill-rule="evenodd" clip-rule="evenodd" d="M36.54 25.7614C36.54 24.9459 36.4668 24.1618 36.3309 23.4091H25.5V27.8575H31.6891C31.4225 29.295 30.6123 30.513 29.3943 31.3284V34.2139H33.1109C35.2855 32.2118 36.54 29.2636 36.54 25.7614Z" fill="#4285F4"/>
<path fill-rule="evenodd" clip-rule="evenodd" d="M25.5 36.9998C28.605 36.9998 31.2081 35.9701 33.1109 34.2137L29.3943 31.3282C28.3645 32.0182 27.0472 32.426 25.5 32.426C22.5047 32.426 19.9695 30.403 19.0652 27.6848H15.2231V30.6644C17.1154 34.4228 21.0045 36.9998 25.5 36.9998Z" fill="#34A853"/>
<path fill-rule="evenodd" clip-rule="evenodd" d="M19.0652 27.6851C18.8352 26.9951 18.7045 26.258 18.7045 25.5001C18.7045 24.7421 18.8352 24.0051 19.0652 23.3151V20.3355H15.2232C14.4443 21.888 14 23.6444 14 25.5001C14 27.3557 14.4443 29.1121 15.2232 30.6646L19.0652 27.6851Z" fill="#FBBC05"/>
<path fill-rule="evenodd" clip-rule="evenodd" d="M25.5 18.5739C27.1884 18.5739 28.7043 19.1541 29.8961 20.2936L33.1945 16.9952C31.2029 15.1395 28.5997 14 25.5 14C21.0045 14 17.1154 16.577 15.2231 20.3355L19.0652 23.315C19.9695 20.5968 22.5047 18.5739 25.5 18.5739Z" fill="#EA4335"/>
</svg>
